<svg width="195" height="50" viewBox="0 0 195 50" fill="none" xmlns="http://www.w3.org/2000/svg">
<path d="M0.0545224 6.35571H47.1629L23.6087 49.9969L0.0545224 6.35571Z" fill="#63084D"/>
<path d="M0.774431 43.9402H1.39398C1.80701 44.2221 2.25446 44.4945 2.73632 44.7576C3.20098 45.0207 3.68285 45.2555 4.18193 45.4622C4.68101 45.6689 5.18869 45.838 5.70498 45.9696C6.22127 46.1199 6.73755 46.195 7.25384 46.195C8.13153 46.195 8.7941 46.0447 9.24155 45.7441C9.70621 45.4434 10.0418 45.0207 10.2483 44.4758C10.4032 44.0248 10.5237 43.4423 10.6097 42.7283C10.713 42.0143 10.7904 41.1969 10.842 40.2762C10.8937 39.3555 10.9281 38.3409 10.9453 37.2322C10.9625 36.1048 10.9711 34.8929 10.9711 33.5964V3.94588C10.9711 3.51372 10.8593 3.15671 10.6355 2.87486C10.4118 2.57422 10.1364 2.38632 9.80947 2.31116L6.04057 1.46561V0H20.3417V1.46561L16.9601 2.31116C16.6331 2.40511 16.3577 2.6024 16.134 2.90304C15.9103 3.18489 15.7984 3.53251 15.7984 3.94588V34.8647C15.7984 37.251 15.4972 39.3743 14.8949 41.2345C14.2926 43.1135 13.4837 44.7012 12.4683 45.9977C11.453 47.2943 10.2655 48.2807 8.90596 48.9572C7.54641 49.6524 6.11801 50 4.62077 50C4.311 50 3.96681 49.9718 3.5882 49.9154C3.19238 49.8591 2.78795 49.7745 2.37492 49.6618C1.96189 49.5678 1.54886 49.4457 1.13583 49.2954C0.705593 49.1638 0.326982 49.0135 0 48.8444L0.774431 43.9402Z" fill="white"/>
<path d="M22.8558 37.655L26.2633 36.7813C26.5903 36.6873 26.8656 36.4994 27.0894 36.2176C27.3131 35.9357 27.425 35.5881 27.425 35.1747V3.94588C27.425 3.51372 27.3131 3.15671 27.0894 2.87486C26.8656 2.59301 26.5903 2.40511 26.2633 2.31116L22.8558 1.46561V0H36.9505V1.46561L33.4139 2.31116C33.0869 2.38632 32.803 2.57422 32.562 2.87486C32.3211 3.1755 32.2006 3.53251 32.2006 3.94588V36.7531H45.3143C45.4864 36.7531 45.6327 36.7061 45.7532 36.6122C45.8909 36.5182 46.0027 36.3961 46.0888 36.2458C46.1748 36.0955 46.2436 35.9357 46.2953 35.7666C46.3469 35.5975 46.3899 35.4472 46.4244 35.3157L48.2572 27.7339H49.9351V39.1206H22.8558V37.655Z" fill="white"/>
<path d="M54.6187 30.4453L56.0267 30.1147C56.1618 30.0791 56.2756 30.008 56.368 29.9013C56.4604 29.7947 56.5067 29.6631 56.5067 29.5067V17.688C56.5067 17.5244 56.4604 17.3893 56.368 17.2827C56.2756 17.176 56.1618 17.1049 56.0267 17.0693L54.6187 16.7493V16.1947H60.8693C61.3529 16.1947 61.8684 16.2409 62.416 16.3333C62.9707 16.4258 63.5182 16.5858 64.0587 16.8133C64.6062 17.0338 65.1324 17.3289 65.6373 17.6987C66.1422 18.0684 66.5867 18.5307 66.9707 19.0853C67.3547 19.6329 67.6604 20.2836 67.888 21.0373C68.1227 21.7911 68.24 22.6622 68.24 23.6507C68.24 24.9164 68.0444 26.0116 67.6533 26.936C67.2622 27.8533 66.7289 28.6142 66.0533 29.2187C65.3849 29.8231 64.5991 30.2711 63.696 30.5627C62.7929 30.8542 61.8364 31 60.8267 31H54.6187V30.4453ZM60.9867 30.1253C61.8471 30.1253 62.5938 29.9902 63.2267 29.72C63.8596 29.4427 64.3858 29.0409 64.8053 28.5147C65.2249 27.9884 65.5378 27.3449 65.744 26.584C65.9502 25.8231 66.0533 24.9556 66.0533 23.9813C66.0533 22.9147 65.9147 21.9547 65.6373 21.1013C65.3671 20.248 64.9796 19.5227 64.4747 18.9253C63.9769 18.328 63.376 17.8693 62.672 17.5493C61.968 17.2222 61.1893 17.0587 60.336 17.0587H58.48V30.1253H60.9867ZM78.6086 28.6747V29.5173C78.381 29.7307 78.1179 29.9404 77.8192 30.1467C77.5277 30.3529 77.2041 30.5378 76.8486 30.7013C76.493 30.8649 76.1126 31 75.7072 31.1067C75.3019 31.2133 74.8823 31.2667 74.4486 31.2667C73.7375 31.2667 73.0868 31.1493 72.4966 30.9147C71.9063 30.6729 71.3979 30.3209 70.9712 29.8587C70.5446 29.3893 70.2139 28.8133 69.9792 28.1307C69.7446 27.448 69.6272 26.6622 69.6272 25.7733C69.6272 25.0267 69.7375 24.3156 69.9579 23.64C70.1855 22.9573 70.5126 22.36 70.9392 21.848C71.3659 21.336 71.8815 20.9271 72.4859 20.6213C73.0975 20.3156 73.7837 20.1627 74.5446 20.1627C75.1988 20.1627 75.7783 20.2836 76.2832 20.5253C76.7952 20.76 77.2219 21.0693 77.5632 21.4533C77.9117 21.8373 78.1748 22.2782 78.3526 22.776C78.5375 23.2738 78.6299 23.7822 78.6299 24.3013C78.6299 24.3653 78.6263 24.4364 78.6192 24.5147C78.6192 24.5858 78.6157 24.6604 78.6086 24.7387C78.6086 24.8169 78.6015 24.8916 78.5872 24.9627C78.573 25.0338 78.5623 25.0978 78.5552 25.1547H71.5579C71.565 26.712 71.8672 27.9031 72.4646 28.728C73.069 29.5529 73.965 29.9653 75.1526 29.9653C75.5508 29.9653 75.9206 29.9227 76.2619 29.8373C76.6032 29.7449 76.9126 29.6347 77.1899 29.5067C77.4672 29.3716 77.709 29.2293 77.9152 29.08C78.1286 28.9307 78.3099 28.7956 78.4592 28.6747H78.6086ZM76.6672 24.3867C76.6672 23.9244 76.6281 23.4871 76.5499 23.0747C76.4717 22.6551 76.3437 22.2889 76.1659 21.976C75.9881 21.656 75.757 21.4036 75.4726 21.2187C75.1881 21.0338 74.8397 20.9413 74.4272 20.9413C74.029 20.9413 73.6699 21.0231 73.3499 21.1867C73.037 21.3502 72.7597 21.5813 72.5179 21.88C72.2832 22.1716 72.0877 22.5307 71.9312 22.9573C71.7819 23.384 71.6752 23.8604 71.6112 24.3867H76.6672ZM80.4412 21.7733C80.3772 21.6169 80.2919 21.5031 80.1852 21.432C80.0785 21.3609 79.9328 21.3004 79.7479 21.2507L79.0012 20.9947V20.472H83.8225V20.9947L82.2759 21.3573L84.7292 27.2453L85.2625 28.632H85.2945L88.0572 21.464L86.5532 20.9947V20.472H90.3612V20.9947L89.6039 21.3467C89.419 21.4249 89.2732 21.496 89.1665 21.56C89.0599 21.6169 88.9781 21.72 88.9212 21.8693L86.0839 28.8347L84.9212 31.1067H84.3772L80.4412 21.7733ZM96.5249 30.4453L97.9329 30.1147C98.068 30.0791 98.1818 30.008 98.2743 29.9013C98.3667 29.7947 98.4129 29.6631 98.4129 29.5067V17.688C98.4129 17.5244 98.3667 17.3893 98.2743 17.2827C98.1818 17.176 98.068 17.1049 97.9329 17.0693L96.5249 16.7493V16.1947H107.458V19.6827H106.765L106.072 17.464C106.036 17.3502 105.983 17.2578 105.912 17.1867C105.848 17.1156 105.755 17.08 105.634 17.08H100.386V23.0107H103.864C104.006 23.0107 104.109 22.9787 104.173 22.9147C104.237 22.8436 104.287 22.7547 104.322 22.648L104.888 20.856H105.474V26.0507H104.888L104.322 24.2693C104.287 24.1627 104.237 24.0738 104.173 24.0027C104.109 23.9316 104.006 23.896 103.864 23.896H100.386V29.5067C100.386 29.6702 100.436 29.8018 100.536 29.9013C100.635 30.0009 100.752 30.072 100.888 30.1147L102.445 30.4453V31H96.5249V30.4453ZM108.346 30.4667L109.551 30.1787C109.693 30.1431 109.807 30.0756 109.892 29.976C109.985 29.8693 110.031 29.7378 110.031 29.5813V22.4987C110.031 22.3138 109.978 22.1573 109.871 22.0293C109.772 21.9013 109.612 21.7982 109.391 21.72L108.356 21.336V20.9627L111.749 20.2587V22.616H111.77C111.969 22.3031 112.179 22.0009 112.399 21.7093C112.62 21.4178 112.861 21.1582 113.125 20.9307C113.395 20.7031 113.683 20.5182 113.989 20.376C114.301 20.2338 114.646 20.1627 115.023 20.1627C115.215 20.1627 115.386 20.1733 115.535 20.1947C115.684 20.2089 115.82 20.2338 115.941 20.2693C116.069 20.2978 116.186 20.3369 116.292 20.3867C116.406 20.4293 116.524 20.4791 116.645 20.536V23.064H115.973L115.631 22.1787C115.603 22.1076 115.542 22.0436 115.45 21.9867C115.365 21.9298 115.261 21.8836 115.141 21.848C115.027 21.8124 114.906 21.784 114.778 21.7627C114.65 21.7413 114.529 21.7307 114.415 21.7307C114.152 21.7307 113.903 21.7662 113.669 21.8373C113.441 21.9084 113.221 22.0116 113.007 22.1467C112.801 22.2747 112.605 22.4347 112.421 22.6267C112.236 22.8116 112.054 23.0213 111.877 23.256V29.5813C111.877 29.7449 111.919 29.8764 112.005 29.976C112.09 30.0756 112.204 30.1431 112.346 30.1787L113.775 30.4667V31H108.346V30.4667ZM122.349 31.288C121.588 31.288 120.898 31.16 120.279 30.904C119.668 30.6409 119.145 30.2676 118.711 29.784C118.278 29.3004 117.943 28.7173 117.709 28.0347C117.474 27.352 117.357 26.5911 117.357 25.752C117.357 24.9698 117.47 24.2409 117.698 23.5653C117.933 22.8898 118.267 22.2996 118.701 21.7947C119.142 21.2898 119.675 20.8916 120.301 20.6C120.934 20.3084 121.652 20.1627 122.455 20.1627C123.309 20.1627 124.048 20.3191 124.674 20.632C125.3 20.9378 125.815 21.3467 126.221 21.8587C126.633 22.3636 126.939 22.9502 127.138 23.6187C127.344 24.2871 127.447 24.984 127.447 25.7093C127.447 26.4773 127.33 27.1991 127.095 27.8747C126.868 28.5502 126.534 29.144 126.093 29.656C125.659 30.1609 125.126 30.5591 124.493 30.8507C123.867 31.1422 123.152 31.288 122.349 31.288ZM122.498 30.4987C123.074 30.4987 123.55 30.3529 123.927 30.0613C124.304 29.7627 124.603 29.3893 124.823 28.9413C125.044 28.4862 125.197 27.992 125.282 27.4587C125.367 26.9253 125.41 26.4133 125.41 25.9227C125.41 25.3253 125.353 24.7316 125.239 24.1413C125.133 23.544 124.955 23.0107 124.706 22.5413C124.464 22.0649 124.144 21.6809 123.746 21.3893C123.348 21.0907 122.864 20.9413 122.295 20.9413C121.918 20.9413 121.584 21.0089 121.293 21.144C121.001 21.2791 120.745 21.464 120.525 21.6987C120.311 21.9262 120.13 22.1929 119.981 22.4987C119.838 22.7973 119.721 23.1173 119.629 23.4587C119.543 23.7929 119.483 24.1378 119.447 24.4933C119.412 24.8418 119.394 25.176 119.394 25.496C119.394 25.8587 119.412 26.2356 119.447 26.6267C119.49 27.0107 119.558 27.3876 119.65 27.7573C119.75 28.12 119.878 28.4684 120.034 28.8027C120.19 29.1369 120.382 29.4284 120.61 29.6773C120.845 29.9262 121.115 30.1253 121.421 30.2747C121.734 30.424 122.093 30.4987 122.498 30.4987ZM128.653 30.4667L129.848 30.1787C129.983 30.136 130.093 30.0649 130.179 29.9653C130.271 29.8658 130.317 29.7378 130.317 29.5813V22.4667C130.317 22.2889 130.268 22.1396 130.168 22.0187C130.068 21.8978 129.908 21.7947 129.688 21.7093L128.664 21.336V20.9627L132.088 20.2587V21.9973H132.109C132.387 21.6133 132.664 21.3004 132.941 21.0587C133.226 20.8169 133.51 20.632 133.795 20.504C134.079 20.3689 134.364 20.28 134.648 20.2373C134.94 20.1876 135.235 20.1627 135.533 20.1627C136.003 20.1627 136.444 20.2338 136.856 20.376C137.268 20.5182 137.624 20.7387 137.923 21.0373C138.228 21.336 138.467 21.72 138.637 22.1893C138.815 22.6587 138.904 23.2204 138.904 23.8747V29.5387C138.904 29.7164 138.95 29.8587 139.043 29.9653C139.142 30.072 139.252 30.1431 139.373 30.1787L140.429 30.4667V31H135.437V30.4667L136.6 30.1787C136.735 30.136 136.845 30.0649 136.931 29.9653C137.016 29.8587 137.059 29.7164 137.059 29.5387V24.5893C137.059 24.1058 137.03 23.672 136.973 23.288C136.916 22.8969 136.803 22.5662 136.632 22.296C136.468 22.0187 136.234 21.8053 135.928 21.656C135.629 21.5067 135.231 21.432 134.733 21.432C134.513 21.432 134.285 21.4533 134.051 21.496C133.816 21.5387 133.585 21.6062 133.357 21.6987C133.13 21.784 132.913 21.8978 132.707 22.04C132.5 22.1822 132.319 22.3529 132.163 22.552V29.5813C132.163 29.7449 132.205 29.8764 132.291 29.976C132.383 30.0756 132.497 30.1431 132.632 30.1787L133.656 30.4667V31H128.653V30.4667ZM142.632 21.4427H140.936V20.8347C141.214 20.7707 141.466 20.7102 141.694 20.6533C141.921 20.5893 142.117 20.504 142.28 20.3973C142.444 20.2907 142.572 20.1449 142.664 19.96C142.757 19.768 142.814 19.5084 142.835 19.1813L142.92 17.8267L144.478 17.5067V20.5253H148.2L147.934 21.4427H144.478V28.7493C144.478 28.9698 144.549 29.1582 144.691 29.3147C144.84 29.464 145.018 29.5884 145.224 29.688C145.431 29.7804 145.647 29.8516 145.875 29.9013C146.103 29.944 146.302 29.9653 146.472 29.9653C146.586 29.9653 146.714 29.9547 146.856 29.9333C147.006 29.9049 147.148 29.8764 147.283 29.848C147.425 29.8124 147.553 29.7769 147.667 29.7413C147.781 29.6987 147.866 29.6596 147.923 29.624H148.072V30.2427C147.973 30.3067 147.831 30.392 147.646 30.4987C147.468 30.6053 147.258 30.712 147.016 30.8187C146.775 30.9182 146.508 31.0036 146.216 31.0747C145.932 31.1529 145.633 31.192 145.32 31.192C144.936 31.192 144.581 31.1422 144.254 31.0427C143.927 30.9502 143.642 30.8187 143.4 30.648C143.166 30.4702 142.977 30.2498 142.835 29.9867C142.7 29.7164 142.632 29.4107 142.632 29.0693V21.4427ZM149.172 24.44H155.156V25.9653H149.172V24.44ZM156.759 30.4453L158.167 30.1147C158.302 30.0791 158.416 30.008 158.509 29.9013C158.601 29.7947 158.647 29.6631 158.647 29.5067V17.688C158.647 17.5244 158.601 17.3893 158.509 17.2827C158.416 17.176 158.302 17.1049 158.167 17.0693L156.759 16.7493V16.1947H167.671V19.704H166.957L166.263 17.464C166.228 17.3502 166.174 17.2578 166.103 17.1867C166.039 17.1156 165.947 17.08 165.826 17.08H160.621V22.84H163.981C164.123 22.84 164.226 22.808 164.29 22.744C164.354 22.68 164.404 22.5947 164.439 22.488L165.005 20.7493H165.613V25.8373H165.005L164.439 24.12C164.404 23.9991 164.354 23.9067 164.29 23.8427C164.226 23.7716 164.123 23.736 163.981 23.736H160.621V30.104H166.722C166.85 30.104 166.946 30.072 167.01 30.008C167.074 29.9369 167.124 29.8409 167.159 29.72L167.821 27.192H168.535V31H156.759V30.4453ZM169.786 30.4667L170.981 30.1787C171.116 30.136 171.226 30.0649 171.312 29.9653C171.404 29.8658 171.45 29.7378 171.45 29.5813V22.4667C171.45 22.2889 171.4 22.1396 171.301 22.0187C171.201 21.8978 171.041 21.7947 170.821 21.7093L169.797 21.336V20.9627L173.221 20.2587V21.9973H173.242C173.52 21.6133 173.797 21.3004 174.074 21.0587C174.359 20.8169 174.643 20.632 174.928 20.504C175.212 20.3689 175.496 20.28 175.781 20.2373C176.072 20.1876 176.368 20.1627 176.666 20.1627C177.136 20.1627 177.576 20.2338 177.989 20.376C178.401 20.5182 178.757 20.7387 179.056 21.0373C179.361 21.336 179.6 21.72 179.77 22.1893C179.948 22.6587 180.037 23.2204 180.037 23.8747V29.5387C180.037 29.7164 180.083 29.8587 180.176 29.9653C180.275 30.072 180.385 30.1431 180.506 30.1787L181.562 30.4667V31H176.57V30.4667L177.733 30.1787C177.868 30.136 177.978 30.0649 178.064 29.9653C178.149 29.8587 178.192 29.7164 178.192 29.5387V24.5893C178.192 24.1058 178.163 23.672 178.106 23.288C178.049 22.8969 177.936 22.5662 177.765 22.296C177.601 22.0187 177.367 21.8053 177.061 21.656C176.762 21.5067 176.364 21.432 175.866 21.432C175.646 21.432 175.418 21.4533 175.184 21.496C174.949 21.5387 174.718 21.6062 174.49 21.6987C174.263 21.784 174.046 21.8978 173.84 22.04C173.633 22.1822 173.452 22.3529 173.296 22.552V29.5813C173.296 29.7449 173.338 29.8764 173.424 29.976C173.516 30.0756 173.63 30.1431 173.765 30.1787L174.789 30.4667V31H169.786V30.4667ZM190.165 29.4213H190.144C189.838 29.8409 189.522 30.1716 189.194 30.4133C188.867 30.6551 188.547 30.8364 188.234 30.9573C187.929 31.0711 187.641 31.1422 187.37 31.1707C187.107 31.1991 186.883 31.2133 186.698 31.2133C186.051 31.2133 185.472 31.0853 184.96 30.8293C184.448 30.5733 184.014 30.2178 183.658 29.7627C183.303 29.3004 183.029 28.76 182.837 28.1413C182.652 27.5156 182.56 26.8329 182.56 26.0933C182.56 25.2756 182.67 24.5076 182.89 23.7893C183.118 23.0711 183.445 22.4453 183.872 21.912C184.298 21.3716 184.818 20.9449 185.429 20.632C186.048 20.3191 186.748 20.1627 187.53 20.1627C187.843 20.1627 188.124 20.1947 188.373 20.2587C188.629 20.3156 188.86 20.3938 189.066 20.4933C189.28 20.5858 189.468 20.696 189.632 20.824C189.795 20.952 189.941 21.08 190.069 21.208V20.7387V17.048C190.069 16.8631 190.023 16.7102 189.93 16.5893C189.845 16.4684 189.689 16.3689 189.461 16.2907L188.256 15.896V15.5333L191.925 14.8187V28.9733C191.925 29.1511 191.971 29.3004 192.064 29.4213C192.163 29.5422 192.327 29.6418 192.554 29.72L193.578 30.0613V30.4347L190.357 31.2133H190.165V29.4213ZM190.069 21.7733C189.948 21.6738 189.785 21.5813 189.578 21.496C189.379 21.4107 189.17 21.3431 188.949 21.2933C188.729 21.2364 188.512 21.1938 188.298 21.1653C188.092 21.1369 187.922 21.1227 187.786 21.1227C187.225 21.1227 186.738 21.2364 186.325 21.464C185.92 21.6916 185.578 22.0009 185.301 22.392C185.031 22.776 184.828 23.2204 184.693 23.7253C184.565 24.2302 184.501 24.7636 184.501 25.3253C184.501 25.9938 184.562 26.6124 184.682 27.1813C184.81 27.7431 185.006 28.2302 185.269 28.6427C185.532 29.048 185.866 29.3644 186.272 29.592C186.684 29.8196 187.171 29.9333 187.733 29.9333C187.897 29.9333 188.085 29.9156 188.298 29.88C188.519 29.8444 188.736 29.784 188.949 29.6987C189.17 29.6133 189.379 29.5031 189.578 29.368C189.778 29.2258 189.941 29.0516 190.069 28.8453V21.7733Z" fill="white"/>
</svg>
